<svg xmlns="http://www.w3.org/2000/svg" version="1.1" xmlns:xlink="http://www.w3.org/1999/xlink" xmlns:svgjs="http://svgjs.dev/svgjs" width="1500" height="1500" viewBox="0 0 1500 1500"><rect width="1500" height="1500" fill="#ffffff"></rect><g transform="matrix(0.6666666666666666,0,0,0.6666666666666666,249.39393939393938,438.58569500674764)"><svg viewBox="0 0 396 247" data-background-color="#c9efc7" preserveAspectRatio="xMidYMid meet" height="935" width="1500" xmlns="http://www.w3.org/2000/svg" xmlns:xlink="http://www.w3.org/1999/xlink"><g id="tight-bounds" transform="matrix(1,0,0,1,0.2400000000000091,-0.09999999999999432)"><svg viewBox="0 0 395.52 247.2" height="247.2" width="395.52"><g><svg></svg></g><g><svg viewBox="0 0 395.52 247.2" height="247.2" width="395.52"><g transform="matrix(1,0,0,1,75.54432,67.94717604152115)"><svg viewBox="0 0 244.43135999999998 111.3056479169577" height="111.3056479169577" width="244.43135999999998"><g><svg viewBox="0 0 244.43135999999998 111.3056479169577" height="111.3056479169577" width="244.43135999999998"><g><svg viewBox="0 0 244.43135999999998 111.3056479169577" height="111.3056479169577" width="244.43135999999998"><g transform="matrix(1,0,0,1,0,66.94889468769094)"><svg viewBox="0 0 244.43135999999998 44.35675322926676" height="44.35675322926676" width="244.43135999999998"><g id="textblocktransform"><svg viewBox="0 0 244.43135999999998 44.35675322926676" height="44.35675322926676" width="244.43135999999998" id="textblock"><g><svg viewBox="0 0 244.43135999999998 23.923913167133794" height="23.923913167133794" width="244.43135999999998"><g transform="matrix(1,0,0,1,0,0)"><svg width="244.43135999999998" viewBox="2.86 -32.4 330.97999999999996 32.4" height="23.923913167133794" data-palette-color="#454545"><path d="M23.97-13.31L13.65-13.31 13.65 0 2.86 0 2.86-32.4 13.65-32.4 13.65-19.56 23.97-19.56 23.97-13.31ZM22.07-26.12L15.36-26.12 15.36-32.4 32.23-32.4 32.23-23.02 22.07-23.02 22.07-26.12ZM32.23 0L15.36 0 15.36-6.47 21.44-6.47 21.44-9.72 32.23-9.72 32.23 0ZM47.7-32.4L47.7 0 43.41 0 36.91-6.47 36.91-25.93 43.41-32.4 47.7-32.4ZM56.59-25.93L49.41-25.93 49.41-32.4 60.91-32.4 67.38-25.93 67.38-19.41 56.59-19.41 56.59-25.93ZM60.91 0L49.41 0 49.41-6.47 56.59-6.47 56.59-11.21 67.38-11.21 67.38-6.47 60.91 0ZM82.61-25.83L82.61-6.59 86.66-6.59 86.66 0 78.36 0 71.8-6.47 71.8-25.93 78.36-32.4 86.66-32.4 86.66-25.83 82.61-25.83ZM92.5-6.59L92.5-25.83 88.37-25.83 88.37-32.4 96.75-32.4 103.29-25.93 103.29-6.47 96.75 0 88.37 0 88.37-6.59 92.5-6.59ZM127.51 0L108.29-32.4 119.77-32.4 128.46-17.99 135.3-29.71 135.3-13.4 127.51 0ZM147.67 0L136.88 0 136.88-32.4 147.67-32.4 147.67 0ZM118.35 0L108.27 0 108.27-29.39 118.35-12.48 118.35 0ZM172.62 0L153.41-32.4 164.88-32.4 173.57-17.99 180.41-29.71 180.41-13.4 172.62 0ZM192.79 0L182 0 182-32.4 192.79-32.4 192.79 0ZM163.47 0L153.38 0 153.38-29.39 163.47-12.48 163.47 0ZM219.62-13.31L209.29-13.31 209.29 0 198.5 0 198.5-32.4 209.29-32.4 209.29-19.56 219.62-19.56 219.62-13.31ZM217.71-26.12L211-26.12 211-32.4 227.87-32.4 227.87-23.02 217.71-23.02 217.71-26.12ZM227.87 0L211 0 211-6.47 217.08-6.47 217.08-9.72 227.87-9.72 227.87 0ZM243.83 0L233.04 0 233.04-32.4 243.83-32.4 243.83 0ZM253.65-25.93L245.54-25.93 245.54-32.4 257.87-32.4 264.36-25.93 264.36-16.21 259.38-11.23 259.04-11.91 248.91-10.57 249.3-9.72 245.54-9.72 245.54-15.99 253.65-15.99 253.65-25.93ZM259.38-11.23L265.46 0 253.94 0 249.3-9.72 257.87-9.72 259.38-11.23ZM279.62-32.4L279.62 0 275.32 0 268.83-6.47 268.83-25.93 275.32-32.4 279.62-32.4ZM288.51-25.93L281.33-25.93 281.33-32.4 292.83-32.4 299.3-25.93 299.3-19.41 288.51-19.41 288.51-25.93ZM292.83 0L281.33 0 281.33-6.47 288.51-6.47 288.51-11.21 299.3-11.21 299.3-6.47 292.83 0ZM325.59-13.31L315.26-13.31 315.26 0 304.47 0 304.47-32.4 315.26-32.4 315.26-19.56 325.59-19.56 325.59-13.31ZM323.69-26.12L316.97-26.12 316.97-32.4 333.84-32.4 333.84-23.02 323.69-23.02 323.69-26.12ZM333.84 0L316.97 0 316.97-6.47 323.05-6.47 323.05-9.72 333.84-9.72 333.84 0Z" opacity="1" transform="matrix(1,0,0,1,0,0)" fill="#000000" class="wordmark-text-0" data-fill-palette-color="primary" id="text-0"></path></svg></g></svg></g><g transform="matrix(1,0,0,1,0,29.571774891978073)"><svg viewBox="0 0 244.43135999999998 14.784978337288686" height="14.784978337288686" width="244.43135999999998"><g transform="matrix(1,0,0,1,0,0)"><svg width="244.43135999999998" viewBox="-0.1 -37.7 802.65 48.550000000000004" height="14.784978337288686" data-palette-color="#454545"><path d="M24.95 0L18.5 0 16.8-8.1 7.9-8.1 6.25 0-0.1 0 8.6-34.55 16.3-34.55 24.95 0ZM12.35-29.7L8.9-12.9 15.85-12.9 12.35-29.7ZM124.85 0.75Q122.15 0.75 120.57-0.93 119-2.6 119-5.4L119-5.4 119-37.05 125.15-37.7 125.15-5.65Q125.15-5 125.45-4.6 125.75-4.2 126.35-4.2L126.35-4.2Q126.7-4.2 127.02-4.3 127.35-4.4 127.45-4.4L127.45-4.4 128.65-0.2Q126.95 0.75 124.85 0.75L124.85 0.75ZM228.85 0.75Q226.15 0.75 224.57-0.93 223-2.6 223-5.4L223-5.4 223-37.05 229.15-37.7 229.15-5.65Q229.15-5 229.45-4.6 229.75-4.2 230.35-4.2L230.35-4.2Q230.7-4.2 231.02-4.3 231.35-4.4 231.45-4.4L231.45-4.4 232.65-0.2Q230.95 0.75 228.85 0.75L228.85 0.75ZM339.45-13.2L326.55-13.2 326.55-18.1 339.45-18.1 339.45-13.2ZM444.9-35.25Q447.9-35.25 450.2-34.2 452.5-33.15 454.45-31.05L454.45-31.05 451.5-27.65Q449.95-29.05 448.47-29.75 447-30.45 445.35-30.45L445.35-30.45Q443.45-30.45 442.35-29.28 441.25-28.1 441.25-26.2L441.25-26.2Q441.25-24.3 442.4-23.1 443.55-21.9 446.9-20.6L446.9-20.6Q451.2-18.85 453.22-16.5 455.25-14.15 455.25-9.85L455.25-9.85Q455.25-6.9 453.9-4.48 452.55-2.05 450.02-0.65 447.5 0.75 444.15 0.75L444.15 0.75Q440.7 0.75 438.15-0.48 435.6-1.7 433.5-3.95L433.5-3.95 436.7-7.45Q438.5-5.85 440.15-5 441.8-4.15 443.75-4.15L443.75-4.15Q446.05-4.15 447.32-5.58 448.6-7 448.6-9.45L448.6-9.45Q448.6-11.6 447.47-12.98 446.35-14.35 443.3-15.5L443.3-15.5Q438.7-17.35 436.67-19.75 434.65-22.15 434.65-25.75L434.65-25.75Q434.65-28.5 435.97-30.65 437.3-32.8 439.65-34.02 442-35.25 444.9-35.25L444.9-35.25ZM563.15-27.15Q566-27.15 567.65-25.1 569.3-23.05 569.3-19.6L569.3-19.6 569.3 0 563.15 0 563.15-18.9Q563.15-20.8 562.62-21.63 562.1-22.45 561.1-22.45L561.1-22.45Q559-22.45 556.95-18.5L556.95-18.5 556.95 0 550.8 0 550.8-37 556.95-37.65 556.95-23.3Q558.2-25.25 559.67-26.2 561.15-27.15 563.15-27.15L563.15-27.15ZM675.8-27.15Q680.8-27.15 683.57-23.65 686.35-20.15 686.35-13.25L686.35-13.25Q686.35-6.65 683.55-2.95 680.75 0.75 675.8 0.75L675.8 0.75Q670.85 0.75 668.05-2.88 665.25-6.5 665.25-13.25L665.25-13.25Q665.25-19.95 668.05-23.55 670.85-27.15 675.8-27.15L675.8-27.15ZM675.8-22.5Q673.65-22.5 672.65-20.38 671.65-18.25 671.65-13.25L671.65-13.25Q671.65-8.2 672.65-6.08 673.65-3.95 675.8-3.95L675.8-3.95Q677.95-3.95 678.95-6.08 679.95-8.2 679.95-13.25L679.95-13.25Q679.95-18.3 678.95-20.4 677.95-22.5 675.8-22.5L675.8-22.5ZM794.65-27.15Q798.55-27.15 800.55-23.58 802.55-20 802.55-13.3L802.55-13.3Q802.55-6.8 800.27-3.03 798 0.75 793.95 0.75L793.95 0.75Q790.75 0.75 788.6-2.1L788.6-2.1 788.6 10.15 782.45 10.85 782.45-26.45 787.9-26.45 788.15-23.25Q789.45-25.25 791.05-26.2 792.65-27.15 794.65-27.15L794.65-27.15ZM792.3-3.95Q794.2-3.95 795.2-6.13 796.2-8.3 796.2-13.25L796.2-13.25Q796.2-18.45 795.35-20.5 794.5-22.55 792.7-22.55L792.7-22.55Q790.4-22.55 788.6-19.25L788.6-19.25 788.6-6.45Q790.2-3.95 792.3-3.95L792.3-3.95Z" opacity="1" transform="matrix(1,0,0,1,0,0)" fill="#000000" class="slogan-text-1" data-fill-palette-color="secondary" id="text-1"></path></svg></g></svg></g></svg></g></svg></g><g transform="matrix(1,0,0,1,91.51448627803921,0)"><svg viewBox="0 0 61.40238744392157 61.30103296284666" height="61.30103296284666" width="61.40238744392157"><g><svg xmlns="http://www.w3.org/2000/svg" xmlns:xlink="http://www.w3.org/1999/xlink" version="1.1" x="0" y="0" viewBox="0 0.2049999999999983 99.96000000000001 99.795" enable-background="new 0 0 100 100" xml:space="preserve" height="61.30103296284666" width="61.40238744392157" class="icon-icon-0" data-fill-palette-color="accent" id="icon-0"><g fill="#454545" data-fill-palette-color="accent"><circle cx="49.98" cy="50.02" r="8.3" fill="#000000" data-fill-palette-color="accent"></circle><path d="M57.492 7.246c0 3.889-3.152 26.404-7.041 26.404-3.888 0-7.041-22.516-7.041-26.404s3.153-7.041 7.041-7.041C54.34 0.205 57.492 3.357 57.492 7.246z" fill="#000000" data-fill-palette-color="accent"></path><path d="M43.41 92.958c0-3.889 3.153-26.403 7.041-26.403 3.889 0 7.041 22.515 7.041 26.403S54.34 100 50.451 100C46.563 100 43.41 96.847 43.41 92.958z" fill="#000000" data-fill-palette-color="accent"></path><path d="M85.757 24.872c-2.791 2.707-21.142 16.131-23.849 13.341-2.708-2.79 11.248-20.736 14.038-23.445 2.79-2.707 7.249-2.643 9.956 0.148C88.612 17.705 88.546 22.163 85.757 24.872z" fill="#000000" data-fill-palette-color="accent"></path><path d="M14.773 75.181c2.79-2.708 21.14-16.129 23.849-13.342 2.707 2.792-11.249 20.736-14.039 23.445-2.789 2.71-7.247 2.645-9.955-0.146C11.919 82.348 11.985 77.892 14.773 75.181z" fill="#000000" data-fill-palette-color="accent"></path><path d="M74.163 86.315c-2.63-2.866-15.548-21.574-12.685-24.207C64.342 59.479 81.9 73.92 84.53 76.785c2.633 2.861 2.445 7.316-0.416 9.947C81.25 89.364 76.797 89.177 74.163 86.315z" fill="#000000" data-fill-palette-color="accent"></path><path d="M24.717 14.668c2.716 2.781 16.189 21.094 13.407 23.809-2.781 2.717-20.767-11.188-23.483-13.973-2.717-2.779-2.664-7.239 0.12-9.957C17.542 11.832 22.002 11.885 24.717 14.668z" fill="#000000" data-fill-palette-color="accent"></path><path d="M7.041 42.756c3.89 0 26.403 3.154 26.403 7.042 0 3.889-22.514 7.042-26.403 7.042C3.153 56.84 0 53.687 0 49.798 0 45.91 3.153 42.756 7.041 42.756z" fill="#000000" data-fill-palette-color="accent"></path><path d="M92.918 57.059c-3.889 0-26.402-3.15-26.402-7.039s22.514-7.041 26.402-7.041c3.89 0 7.042 3.152 7.042 7.041S96.808 57.059 92.918 57.059z" fill="#000000" data-fill-palette-color="accent"></path></g></svg></g></svg></g><g></g></svg></g></svg></g></svg></g><g><path d="M92.03 62.299A122.216 122.216 0 0 1 303.49 62.299L301.333 62.299A120.058 120.058 0 0 0 94.187 62.299L92.03 62.299M92.03 184.901A122.216 122.216 0 0 0 303.49 184.901L301.333 184.901A120.058 120.058 0 0 1 94.187 184.901L92.03 184.901" fill="#000000" stroke="transparent" data-fill-palette-color="tertiary"></path></g></svg></g><defs></defs></svg><rect width="395.52" height="247.2" fill="none" stroke="none" visibility="hidden"></rect></g></svg></g></svg>